<svg xmlns="http://www.w3.org/2000/svg" viewBox="0 0 324 198.86"><defs><style>.a27e3204-1c23-47a9-b2a1-9f7b68fbd4f9{fill:#fff;}</style></defs><title>Cloud1</title><g id="b35ada80-91e0-4b8c-8fd7-b7bd9c49a09c" data-name="Layer 2"><g id="aa0cfdcf-0279-4bda-ad3d-7c2e032f1377" data-name="v2"><g id="f964ad56-2772-42a2-8221-a89261886025" data-name="Cloud"><path class="a27e3204-1c23-47a9-b2a1-9f7b68fbd4f9" d="M324,133.4a49.54,49.54,0,0,1-84.84,34.77,42,42,0,0,1-71.77,8.46,27.89,27.89,0,0,1-45.07,2.1,37.57,37.57,0,0,1-69.5-7.46l-1.34,0A51.49,51.49,0,0,1,32.34,72,32.32,32.32,0,0,1,85.17,43.51a68.34,68.34,0,0,1,126.52-2,49.59,49.59,0,0,1,68.88,42.74A49.55,49.55,0,0,1,324,133.4Z"/></g></g></g></svg>